<?xml version="1.0" encoding="UTF-8" standalone="no"?>
<svg
   version="1.1"
   id="Layer_1"
   x="0px"
   y="0px"
   width="2000"
   viewBox="0 0 2000 2052.7691"
   enable-background="new 0 0 2000 2250"
   xml:space="preserve"
   sodipodi:docname="jrlogo.svg"
   height="2052.769"
   inkscape:version="1.3 (0e150ed, 2023-07-21)"
   xmlns:inkscape="http://www.inkscape.org/namespaces/inkscape"
   xmlns:sodipodi="http://sodipodi.sourceforge.net/DTD/sodipodi-0.dtd"
   xmlns="http://www.w3.org/2000/svg"
   xmlns:svg="http://www.w3.org/2000/svg"
   xmlns:rdf="http://www.w3.org/1999/02/22-rdf-syntax-ns#"
   xmlns:cc="http://creativecommons.org/ns#"><defs
   id="defs24" /><sodipodi:namedview
   id="namedview24"
   pagecolor="#ffffff"
   bordercolor="#000000"
   borderopacity="0.25"
   inkscape:showpageshadow="2"
   inkscape:pageopacity="0.0"
   inkscape:pagecheckerboard="false"
   inkscape:deskcolor="#d1d1d1"
   inkscape:zoom="0.41955556"
   inkscape:cx="995.10064"
   inkscape:cy="1125"
   inkscape:window-width="2560"
   inkscape:window-height="1387"
   inkscape:window-x="1710"
   inkscape:window-y="25"
   inkscape:window-maximized="1"
   inkscape:current-layer="Layer_1" />&#10;<path
   fill="#f25f3a"
   opacity="1"
   stroke="none"
   d="m 2000,929.89101 c 0,439.91909 0,879.83799 0,1319.87839 -666.4631,0 -1332.92621,0 -2000,0 0,-400.6009 0,-801.3237 0.701618,-1202.925 2.93682,2.3641 5.562451,5.407 7.341076,8.8831 8.643641,16.8931 17.284504,33.7942 25.515049,50.8906 23.802399,49.4418 41.355824,100.9915 51.451656,154.9909 1.343674,7.1869 2.730156,14.433 3.165482,21.7074 0.76477,12.7794 -4.931099,17.8884 -17.47197,16.5393 -2.254058,-0.2425 -4.489349,-0.6593 -8.211357,-1.2173 -0.286461,11.2309 -0.767235,21.7521 -0.778183,32.2738 -0.02161,20.7596 1.832978,41.2701 10.225762,60.6032 15.640976,36.0292 31.407587,72.0038 47.104917,108.0087 17.56214,40.2823 35.90122,80.2501 52.41431,120.9582 14.13159,34.8373 26.19688,70.5143 39.08032,105.8547 1.87915,5.1547 3.40648,9.2804 10.46794,9.8832 7.41788,0.6333 13.34749,5.752 18.14818,11.5309 6.73418,8.1068 10.89473,17.3556 12.6123,27.8375 3.99675,24.3911 10.18264,48.1906 20.35558,70.8145 11.34827,25.2381 26.21259,47.9935 48.36023,65.108 22.16309,17.1264 46.71905,27.9264 75.54181,26.793 11.98032,-0.4713 24.00207,-0.3425 35.99219,-0.016 24.40515,0.6636 46.49319,7.6026 64.67569,24.7423 2.8934,2.7275 6.07919,5.2256 9.41534,7.3897 30.22275,19.6046 63.37766,28.9221 99.38162,27.5596 5.24817,-0.1988 9.50641,0.8324 14.11493,3.3751 15.44629,8.5226 31.07886,16.7336 46.87805,24.5851 38.1966,18.9818 76.0763,38.5123 111.45899,62.4832 6.73108,4.5603 13.13177,3.8042 19.64215,0.1265 1.90393,-1.0757 3.44977,-2.7849 6.5517,-5.3589 0.53936,5.6941 1.17627,9.876 1.25061,14.0679 0.0524,2.9534 -0.70642,5.9153 -1.0199,8.8821 -0.59314,5.614 1.79065,8.1775 8.0365,7.2185 1.04675,-0.3609 1.58783,-0.7451 2.98926,-1.1353 4.84033,-0.31 8.85687,-0.3701 12.79467,-0.9577 39.79731,-5.939 79.87757,-9.1744 120.02027,-10.75 23.87378,-0.9373 47.88855,0.2512 71.77911,1.5781 29.9382,1.6628 59.4182,6.6584 88.2213,15.2951 4.3566,1.3062 8.6309,2.5489 13.5843,0.8548 25.2372,-8.6306 50.0085,-5.5945 73.8635,4.989 13.6496,6.0559 26.7819,13.3503 39.831,20.6521 5.1534,2.8835 10.2014,4.6277 16.3501,4.7141 0.3375,0.3621 1.2335,0.78 1.2335,0.78 0,0 0.9874,-0.048 1.8191,0.03 2.4962,0.095 4.1678,0.2194 5.8243,0.112 9.9162,-0.643 12.8416,-4.5803 10.7738,-14.3891 -0.5211,-2.4727 -1.0049,-4.9532 -1.6907,-8.3431 7.6576,-3.1267 14.4726,-6.7937 21.7487,-8.7019 17.0262,-4.4655 34.4589,-7.4379 51.3704,-12.2644 12.7168,-3.6291 21.2402,0.8138 28.5048,10.4624 3.7989,5.0452 7.3902,10.3157 11.7138,14.8797 5.6713,5.987 11.8723,11.5898 21.6548,10.6599 0.2644,-2.3784 0.6311,-4.2969 0.665,-6.221 0.1511,-8.5732 -0.4685,-17.2216 0.4542,-25.7053 1.4246,-13.0974 8.6674,-19.5752 21.7698,-20.1919 7.6281,-0.3591 15.2965,0.1695 22.9473,0.2488 4.862,0.051 9.7251,0.01 15.0534,0.01 0,-9.5405 0.235,-17.7856 -0.064,-26.0117 -0.3227,-8.8918 2.7095,-15.9529 9.032,-22.3049 11.7259,-11.7805 22.7077,-24.2999 34.3891,-36.1265 13.0697,-13.2324 26.2976,-26.3376 40.0221,-38.8793 5.4361,-4.9677 11.436,-10.0205 19.3656,-11.3582 10.171,10.9467 20.0622,21.5924 31.4144,33.8103 0.2938,-5.2493 0.8071,-8.4336 0.5906,-11.5677 -1.0286,-14.8862 -7.4295,-27.3737 -17.4742,-38.1779 -5.3398,-5.7436 -12.2708,-10.3489 -14.1339,-19.7355 2.1137,-1.278 4.1364,-2.9963 6.4744,-3.8267 9.0892,-3.2281 18.2549,-6.2481 27.4364,-9.2081 13.8771,-4.4736 26.9014,-3.7164 38.3197,6.5259 0.6793,0.6092 1.8384,0.6837 2.9406,1.3662 0.7155,0.4289 1.2648,0.4985 1.814,0.5682 -0.1804,-0.7961 -0.3608,-1.5923 -0.8026,-3.0709 -1.2087,-2.4412 -2.2564,-4.1539 -3.0865,-5.9663 -4.1342,-9.0262 -2.9249,-13.1101 5.4274,-18.3657 6.0515,-3.8081 12.6483,-5.9132 19.8228,-6.0122 5.3318,-0.074 10.675,-0.2675 15.9955,-0.024 21.3992,0.9801 32.6653,-10.4287 36.9157,-29.0229 0.9611,-4.2053 2.2462,-8.5727 1.9671,-12.7714 -0.4447,-6.6906 2.7683,-11.2067 6.6055,-15.9781 22.7338,-28.2669 46.2871,-55.9447 67.7119,-85.1784 33.1519,-45.2347 60.6002,-94.0409 83.7972,-145.0821 14.0428,-30.8985 26.6093,-62.4688 39.7591,-93.7712 0.9179,-2.1851 1.1664,-4.6514 1.8331,-7.4339 -1.8074,0.3177 -2.5409,0.2707 -3.0751,0.5744 -1.4412,0.8194 -2.854,1.7134 -4.1797,2.7089 -22.8017,17.1226 -42.7308,37.0395 -58.8476,60.6485 -5.0697,7.4263 -9.7153,15.1784 -15.229,22.2564 -7.1506,9.1789 -13.9348,10.158 -24.3244,4.6474 -1.1043,-0.5859 -2.3073,-0.9856 -4.5046,-1.9086 -3.2765,10.5656 -6.3999,20.6374 -10.1333,30.7933 -1.0163,0.026 -1.4227,-0.031 -1.8032,-0.9749 0.026,-7.3544 0.026,-13.8225 0.026,-21.2268 -3.7414,2.6294 -6.7465,4.5992 -9.6003,6.7682 -57.786,43.9184 -115.2514,88.266 -173.4113,131.6832 -59.5208,44.4335 -120.7698,86.4423 -183.2381,126.6413 -7.5186,4.8383 -15.3885,9.3535 -23.593,12.8522 -13.0508,5.5657 -23.3015,2.0883 -31.3052,-9.4967 -2.0111,-2.9108 -3.7656,-5.9991 -6.0352,-9.6435 -2.9543,2.206 -5.0931,3.6576 -7.068,5.3054 -6.1289,5.1137 -11.8175,10.8556 -18.3755,15.33 -9.6966,6.6156 -16.7896,2.6646 -17.2758,-9.0088 -0.1339,-3.2151 -0.02,-6.4407 -0.02,-9.7399 -6.9126,-0.4398 -13.225,-0.4975 -19.4389,-1.3083 -13.0021,-1.6968 -16.9186,0.4019 -22.2843,12.6369 -1.3725,3.1298 -3.0519,6.1249 -4.7551,9.5092 -7.1016,-3.8518 -6.3967,-13.1199 -15.1547,-15.3056 -1.7615,8.9435 -3.433,17.4301 -5.1678,26.2384 -7.8876,-7.4691 -10.5113,-7.435 -17.0718,0.3764 -2.9117,3.467 -5.3319,7.3468 -8.4292,11.6734 -4.8776,-6.9908 -9.1586,-13.271 -13.5924,-19.4414 -4.547,-6.3281 -9.3335,-12.4546 -17.5247,-17.2329 2.5927,10.8615 8.4093,20.0421 4.3588,31.3875 -3.8209,-2.8002 -6.5501,-4.8003 -10.1384,-7.4301 -0.8526,7.3808 -1.767,13.5935 -2.2272,19.84 -0.3431,4.6586 -1.8744,7.891 -6.21,10.4532 -4.8108,2.8433 -9.9555,6.2015 -13.0529,10.6576 -8.7301,12.5602 -20.9858,16.1933 -35.2528,16.9674 -35.6618,1.9357 -70.6675,8.0689 -105.2179,17.0612 -3.9949,1.0397 -8.6303,1.0902 -12.6756,0.2269 -27.3271,-5.8318 -54.46757,-12.5779 -81.87315,-17.9922 -44.72229,-8.8357 -89.87396,-14.8835 -135.30713,-18.7765 -17.55438,-1.5042 -35.23071,-2.3143 -52.60895,-5.0063 -49.07019,-7.6012 -93.9884,-26.428 -136.02343,-52.4814 -2.1001,-1.3017 -3.88831,-3.1066 -6.00214,-4.8238 20.3529,-13.6968 25.4461,-23.6987 19.13092,-36.6651 -12.48236,12.685 -13.44934,13.1745 -33.4541,17.0445 -3.26697,0.632 -6.6717,0.9036 -9.76038,2.0324 -6.6449,2.4284 -11.26178,-0.014 -15.99969,-4.6769 -19.21833,-18.9142 -38.5799,-37.6885 -58.15583,-56.2324 -26.5704,-25.1696 -53.46484,-49.997 -80.07522,-75.1247 -32.66532,-30.8452 -65.6565,-61.3678 -97.60385,-92.9433 -23.6554,-23.3799 -45.5611,-48.5193 -68.80982,-72.3245 -23.88136,-24.453 -41.51025,-52.6992 -54.3192,-84.2092 -12.16046,-29.9149 -24.47638,-59.7671 -36.88156,-89.5813 -1.96712,-4.7276 -4.76558,-9.1091 -7.48685,-14.2287 -3.16929,2.8912 -5.17318,5.095 -7.53791,6.7978 -4.82065,3.471 -9.89316,3.589 -13.64173,-0.3859 -6.77112,-7.1799 -11.28627,-15.748 -11.62402,-25.7861 -0.11636,-3.4583 1.08087,-7.2952 2.72317,-10.4077 3.34716,-6.3434 8.43949,-7.7997 15.1186,-5.0065 2.56262,1.0718 4.9935,2.4586 8.37962,4.1488 -0.16499,-3.4513 -0.0894,-5.7518 -0.40987,-7.9957 -5.5951,-39.1735 -11.35659,-78.3239 -16.80296,-117.5179 -1.72787,-12.4343 -5.4523,-25.0058 -1.06055,-37.5238 3.07059,-8.7522 6.59104,-17.4094 10.69535,-25.7218 6.79438,-13.7602 13.76292,-27.2963 15.21154,-42.9959 1.64896,-17.8706 3.88324,-35.6872 5.84136,-53.5295 6.01967,-54.8512 12.20077,-109.68549 17.98921,-164.56116 4.85162,-45.99426 16.15358,-90.35144 33.07246,-133.29376 28.5098,-72.36157 72.83365,-134.35297 126.07325,-190.32129 17.4303,-18.32361 35.36291,-36.20325 53.67718,-53.64392 24.08872,-22.93976 49.01529,-44.99906 73.1351,-67.90708 17.2298,-16.36419 35.68033,-30.84839 56.27133,-42.79232 37.72596,-21.88315 75.13386,-44.31382 112.76648,-66.35886 35.05372,-20.53433 70.66083,-39.96671 107.9549,-56.28571 71.54352,-31.30578 146.40845,-45.77758 224.28589,-45.51721 13.62646,0.0456 27.25338,1.21724 40.87428,1.11133 6.8964,-0.0536 13.8919,-1.3149 20.6446,-2.88277 12.8011,-2.9722 20.7568,-11.30601 24.2613,-23.92593 4.7168,-16.98425 2.1332,-33.99736 1.0227,-51.09946 -21.3464,2.35622 -24.9665,1.24898 -41.5238,-12.43153 -1.5388,-1.27155 -2.8861,-2.78999 -4.4892,-3.96615 -5.8954,-4.32519 -11.5449,-9.11498 -17.8751,-12.68774 -9.39415,-5.30206 -18.67967,-7.74153 -30.08141,-2.90554 -22.9563,9.73681 -46.94818,17.01081 -70.0321,26.4736 -23.37738,9.5831 -46.53015,19.87343 -69.10199,31.20685 -15.40045,7.73265 -29.63428,17.78878 -44.98889,26.74118 -1.40033,-0.12938 -2.2013,-0.19388 -3.05774,-1.09288 0.56298,-10.77379 1.59204,-20.71038 1.65777,-30.65335 0.0451,-6.82079 -4.04187,-10.14859 -10.46325,-8.14331 -5.19037,1.62084 -10.25647,4.76589 -14.40656,8.35708 -8.54346,7.39292 -16.15655,15.85834 -24.67194,23.287 -10.00384,8.72719 -20.36639,17.0765 -30.94763,25.09591 -6.31836,4.78862 -13.58227,6.13105 -21.74572,4.38627 -14.8866,-3.18172 -29.88379,-2.57985 -44.38123,2.19963 -37.46051,12.34993 -62.78198,37.87714 -77.49493,73.91794 -3.0022,7.35413 -6.56299,11.02396 -14.2613,10.57492 -17.23254,-1.00519 -34.50653,-1.58243 -51.68261,-3.19656 -18.02381,-1.69376 -34.63553,0.89795 -48.50366,13.29165 -27.76139,24.81003 -55.90992,49.22934 -82.81464,74.9441 -30.57559,29.22326 -59.93643,59.71618 -89.89472,89.58761 -6.71521,6.69574 -11.95303,14.31091 -15.20407,23.18271 -3.43426,9.3718 -6.55542,18.85855 -9.79454,28.30161 -4.5807,13.35424 -11.18673,25.44323 -20.39862,36.31976 -19.18583,22.65289 -41.08836,42.52728 -62.54173,62.89777 -19.28496,18.31158 -38.72881,36.50585 -57.13976,55.67657 C 83.523239,710.355 63.237556,747.9153 49.418964,789.17403 33.493313,836.72383 25.814728,886.00411 18.231251,935.32308 13.533062,965.87746 8.741891,996.41817 3.778632,1026.9302 3.272808,1030.0397 1.294832,1032.9098 0,1035.891 0,690.63033 0,345.36965 0,0 c 666.45374,0 1332.9075,0 2000,0 0,306.61345 0,613.33632 -0.6165,921.26223 -10.775,5.927 -16.6367,14.6408 -21.9069,23.96148 -3.1451,5.56201 -7.0881,10.19647 -15.722,10.91303 0,-17.07483 0,-33.45551 -0.068,-50.29016 -0.245,-1.05201 -0.5486,-1.57666 -1.1057,-2.95227 -1.7377,-25.14368 -2.5358,-49.45081 -5.1361,-73.56354 -4.7404,-43.95923 -10.516,-87.80719 -15.9451,-131.6911 -0.901,-7.28284 -3.1672,-13.94367 -7.2181,-20.40167 -59.2922,-94.52442 -118.3137,-189.21857 -177.4623,-283.83317 -7.7633,-12.41818 -14.9938,-25.30975 -24,-36.78173 -19.7948,-25.21448 -42.9636,-47.21805 -67.8356,-67.45496 -48.5214,-39.4796 -102.5307,-69.29904 -160.9272,-91.26259 -30.2418,-11.3743 -60.8855,-21.75577 -92.952,-26.72922 -24.6443,-3.82226 -49.4176,-5.62892 -74.4793,-3.86248 -17.9161,1.26281 -35.9724,1.1213 -53.9485,0.75254 -12.2973,-0.25227 -21.0673,4.88807 -27.8715,14.45493 -2.2592,3.17641 -4.3235,6.49118 -6.8526,10.30975 -11.4045,-6.11505 -23.4703,-5.39094 -35.4409,-5.24691 -7.3242,0.0881 -14.7467,-0.22712 -21.939,0.8641 -7.1296,1.08171 -14.682,2.48926 -20.9076,5.86119 -23.3153,12.62814 -28.7158,41.89917 -11.9941,63.54567 13.5195,17.50122 31.3027,29.80881 51.1495,39.03973 30.0393,13.97156 61.9152,19.89176 94.8977,20.81647 4.1003,0.11496 8.6477,1.33786 12.1405,3.44922 40.1724,24.28357 81.0175,47.58545 120.0279,73.62833 52.3292,34.93426 103.2369,72.00015 154.6936,108.23806 26.1367,18.40662 52.4249,36.61982 78.0802,55.68 12.5962,9.35815 25.2467,11.09625 39.337,5.28052 5.5187,-2.27778 10.9188,-4.85126 16.3225,-7.39698 5.8909,-2.77533 11.7233,-5.67456 19.7045,-9.55096 -0.7572,9.06665 -1.3252,15.8656 -1.9674,23.02411 -0.092,0.86987 0.057,1.32531 0.7294,2.58911 1.051,7.79046 1.4035,14.77264 2.5041,21.63489 3.7133,23.15423 13.4313,44.40503 21.043,66.35583 8.5576,24.67889 23.719,43.07459 45.8043,56.90552 22.5046,14.09357 34.9415,34.94775 36.1796,62.38129 0.2381,1.05468 0.54,1.58075 1.0994,2.92102 0.7364,17.34002 -2.0694,33.28985 -7.4035,48.77392 -1.4988,4.35083 -1.8958,7.95593 0.468,12.23883 8.8141,15.97058 16.36,32.70923 26.0396,48.11835 15.5572,24.76642 32.6892,48.42975 57.8148,64.90436 2.693,1.76587 3.9728,5.68707 5.9769,9.06024 0.2469,1.047 0.551,1.5686 1.1079,2.91461 0.7252,8.45044 -0.9784,16.24439 2.9889,23.43213 4.9301,8.93218 11.7252,10.44318 19.5841,4.01355 2.3417,-1.91577 4.4973,-4.05908 6.738,-6.09827 1.1644,5.45661 0.7989,9.71951 0.2912,13.9653 -3.9467,33.007 -8.8898,65.9551 -6.6441,99.3631 0.6993,10.4001 1.3968,20.8664 6.0044,30.6643 1.5956,-7.753 2.6244,-15.4644 3.2016,-23.2094 3.0943,-41.5266 8.6666,-82.7219 18.5993,-123.15787 4.8123,-19.59119 11.8087,-38.64581 17.8161,-57.94342 M 791.2323,1389.9172 c 0.0839,-0.684 0.16791,-1.3681 0.37414,-3.8776 0.18879,-6.7065 0.37757,-13.4129 0.93726,-20.5594 0.2594,-0.5564 0.24738,-1.106 -0.16193,-3.5124 -0.0149,-30.3235 -0.042,-60.6469 -0.0428,-90.9704 -0.005,-181.2786 -0.15546,-362.55768 0.19903,-543.83564 0.0416,-21.27154 -9.52996,-34.86438 -27.98706,-42.77801 -9.08294,-3.89447 -18.87469,-6.62476 -28.6156,-8.40296 -27.66205,-5.04956 -55.55883,-4.46637 -83.53363,-2.58441 -31.76684,2.13721 -62.60022,8.48413 -92.64038,18.76135 -19.56573,6.69385 -38.57196,14.64954 -55.51984,26.88318 -10.80069,7.79633 -16.57907,17.89716 -15.9313,31.41407 0.15933,3.32464 0.0207,6.66345 0.0207,9.99578 0.002,185.61072 -0.0152,371.22154 0.0476,556.83224 0.004,12.0716 -1.23609,23.9109 -4.56201,35.5132 -4.21997,14.7213 -12.58164,24.8269 -29.00931,25.9078 -3.63776,0.2392 -7.26532,0.6345 -10.90351,0.8651 -11.32781,0.718 -20.95642,5.1815 -26.86099,14.9005 -4.43512,7.3003 -8.47952,15.2938 -10.5068,23.5189 -7.18927,29.1673 -7.44162,58.8833 -1.63407,88.1687 7.46552,37.6463 30.23789,61.7742 67.80732,72.007 25.54476,6.9575 51.49356,10.7638 77.79452,11.1837 27.93866,0.4458 55.91773,-0.2759 83.85059,-1.282 21.06439,-0.7586 41.52917,-5.6183 61.36603,-12.6518 23.49914,-8.3322 43.09259,-22.074 57.37091,-42.911 11.41265,-16.6553 19.29046,-34.943 25.05755,-54.1452 8.57904,-28.5653 11.72052,-57.9537 13.08362,-88.4407 m 166.96802,52.9214 c 0,0 0.86102,0.3982 0.86102,0.3982 0,0 0.9483,-0.024 2.8078,0.2178 17.94092,-0.4073 35.88043,-1.0753 53.82292,-1.1675 36.6361,-0.188 73.0096,-3.755 109.1868,-8.979 15.3785,-2.2207 30.5291,-6.4072 45.5324,-10.5984 4.3793,-1.2235 7.8938,-5.5434 12.5473,-9.04 0.4699,-0.5158 0.6124,-1.1099 0.6225,-3.6477 0.3016,-73.1812 -0.1597,-146.3682 0.2558,-219.9248 4.0636,0 6.6868,0.161 9.2835,-0.033 5.5348,-0.4142 8.2962,2.0224 9.9561,7.3969 12.1787,39.4316 24.6087,78.7854 36.9997,118.1513 9.8912,31.4249 19.9344,62.8025 29.6996,94.2663 2.6685,8.5986 6.6212,16.2553 14.6455,20.6194 5.7578,3.1316 12.0175,5.7602 18.3714,7.3001 22.152,5.369 44.9419,4.5807 67.4754,5.5084 18.9071,0.7783 37.903,-0.9303 56.862,-1.0161 35.0036,-0.1587 69.791,-2.7791 104.2772,-8.728 17.4163,-3.0043 34.602,-7.1935 50.2663,-15.8234 17.8019,-9.8074 22.9587,-21.5123 18.7882,-41.5117 -5.3562,-25.6856 -16.3533,-49.2687 -27.8948,-72.5082 -24.1601,-48.6482 -52.1498,-95.1464 -80.9518,-141.1565 -4.5343,-7.2432 -9.1577,-14.4305 -13.7838,-21.7128 0.9441,-1.0695 1.4452,-1.9682 2.209,-2.4543 24.9196,-15.8628 43.9093,-37.433 59.6477,-62.0889 27.2537,-42.6952 38.5354,-90.27932 41.8273,-140.05972 1.625,-24.57214 1.2192,-49.18676 -1.0652,-73.80969 -3.775,-40.68902 -15.8475,-78.03149 -40.6923,-110.97223 -14.9712,-19.84985 -30.6994,-38.83032 -53.9438,-49.29828 -26.1354,-11.77008 -53.1018,-21.47992 -80.9568,-28.34356 -35.0905,-8.64655 -71.1261,-9.80439 -106.9526,-11.33002 -33.9305,-1.44489 -67.9561,-1.07367 -101.9355,-0.84912 -50.9426,0.33667 -101.9143,0.35895 -152.8097,2.24151 -30.1687,1.11597 -60.28507,4.98127 -90.28946,8.70343 -18.12787,2.24891 -35.97821,6.4693 -52.76642,14.40332 -15.12867,7.14972 -22.07495,17.79566 -22.04389,35.32233 0.40283,226.94977 0.26667,453.90053 0.26752,680.85103 0,2.6661 0.0399,5.3324 0.0123,7.9982 -0.0863,8.3444 3.42676,15.1021 10.30017,19.403 4.98334,3.1184 10.6466,5.6008 16.34186,7.0466 17.21759,4.3708 34.86657,4.9031 53.21881,5.2253 m 246.95351,412.2249 c 0,0 -0.229,0.1374 0,0 z"
   id="path1"
   style="opacity:0" />&#10;<path
   fill="#f25f3a"
   opacity="1"
   stroke="none"
   d="m 1802.068,1512.6591 c 3.1234,-10.0718 6.2468,-20.1436 9.5233,-30.7092 2.1973,0.923 3.4003,1.3227 4.5046,1.9086 10.3896,5.5106 17.1738,4.5315 24.3244,-4.6474 5.5137,-7.078 10.1593,-14.8301 15.229,-22.2564 16.1168,-23.609 36.0459,-43.5259 58.8476,-60.6485 1.3257,-0.9955 2.7385,-1.8895 4.1797,-2.7089 0.5342,-0.3037 1.2677,-0.2567 3.0751,-0.5744 -0.6667,2.7825 -0.9152,5.2488 -1.8331,7.4339 -13.1498,31.3024 -25.7163,62.8727 -39.7591,93.7712 -23.197,51.0412 -50.6453,99.8474 -83.7972,145.0821 -21.4248,29.2337 -44.9781,56.9115 -67.7119,85.1784 -3.8372,4.7714 -7.0502,9.2875 -6.6055,15.9781 0.2791,4.1987 -1.006,8.5661 -1.9671,12.7714 -4.2504,18.5942 -15.5165,30.003 -36.9157,29.0229 -5.3205,-0.2437 -10.6637,-0.05 -15.9955,0.024 -7.1745,0.099 -13.7713,2.2041 -19.8228,6.0122 -8.3523,5.2556 -9.5616,9.3395 -5.4274,18.3657 0.8301,1.8124 1.8778,3.5251 2.7264,6.3313 -0.3384,1.2911 -0.5781,1.5348 -0.8177,1.7786 -0.9358,-0.3234 -2.0949,-0.3979 -2.7742,-1.0071 -11.4183,-10.2423 -24.4426,-10.9995 -38.3197,-6.5259 -9.1815,2.96 -18.3472,5.98 -27.4364,9.2081 -2.338,0.8304 -4.3607,2.5487 -6.4744,3.8267 1.8631,9.3866 8.7941,13.9919 14.1339,19.7355 10.0447,10.8042 16.4456,23.2917 17.4742,38.1779 0.2165,3.1341 -0.2968,6.3184 -0.5906,11.5677 -11.3522,-12.2179 -21.2434,-22.8636 -31.4144,-33.8103 -7.9296,1.3377 -13.9295,6.3905 -19.3656,11.3582 -13.7245,12.5417 -26.9524,25.6469 -40.0221,38.8793 -11.6814,11.8266 -22.6632,24.346 -34.3891,36.1265 -6.3225,6.352 -9.3547,13.4131 -9.032,22.3049 0.2986,8.2261 0.064,16.4712 0.064,26.0117 -5.3283,0 -10.1914,0.041 -15.0534,-0.01 -7.6508,-0.079 -15.3192,-0.6079 -22.9473,-0.2488 -13.1024,0.6167 -20.3452,7.0945 -21.7698,20.1919 -0.9227,8.4837 -0.3031,17.1321 -0.4542,25.7053 -0.034,1.9241 -0.4006,3.8426 -0.665,6.221 -9.7825,0.9299 -15.9835,-4.6729 -21.6548,-10.6599 -4.3236,-4.564 -7.9149,-9.8345 -11.7138,-14.8797 -7.2646,-9.6486 -15.788,-14.0915 -28.5048,-10.4624 -16.9115,4.8265 -34.3442,7.7989 -51.3704,12.2644 -7.2761,1.9082 -14.0911,5.5752 -21.7487,8.7019 0.6858,3.3899 1.1696,5.8704 1.6907,8.3431 2.0678,9.8088 -0.8576,13.7461 -10.7738,14.3891 -1.6565,0.1074 -3.3281,-0.017 -6.2101,-0.3806 -1.7685,-0.6748 -2.3641,-0.8603 -3.0044,-0.9033 -5.8111,0.2754 -10.8591,-1.4688 -16.0125,-4.3523 -13.0491,-7.3018 -26.1814,-14.5962 -39.831,-20.6521 -23.855,-10.5835 -48.6263,-13.6196 -73.8635,-4.989 -4.9534,1.6941 -9.2277,0.4514 -13.5843,-0.8548 -28.8031,-8.6367 -58.2831,-13.6323 -88.2213,-15.2951 -23.89056,-1.3269 -47.90533,-2.5154 -71.77911,-1.5781 -40.1427,1.5756 -80.22296,4.811 -120.02027,10.75 -3.9378,0.5876 -7.95434,0.6477 -13.27087,1.0454 -1.95349,0.3017 -2.51422,0.6123 -3.01874,1.0241 -5.74017,0.9825 -8.12396,-1.581 -7.53082,-7.195 0.31348,-2.9668 1.07226,-5.9287 1.0199,-8.8821 -0.0743,-4.1919 -0.71125,-8.3738 -1.25061,-14.0679 -3.10193,2.574 -4.64777,4.2832 -6.5517,5.3589 -6.51038,3.6777 -12.91107,4.4338 -19.64215,-0.1265 -35.38269,-23.9709 -73.26239,-43.5014 -111.45899,-62.4832 -15.79919,-7.8515 -31.43176,-16.0625 -46.87805,-24.5851 -4.60852,-2.5427 -8.86676,-3.5739 -14.11493,-3.3751 -36.00396,1.3625 -69.15887,-7.955 -99.38162,-27.5596 -3.33615,-2.1641 -6.52194,-4.6622 -9.41534,-7.3897 -18.1825,-17.1397 -40.27054,-24.0787 -64.67569,-24.7423 -11.99012,-0.3261 -24.01187,-0.4549 -35.99219,0.016 -28.82276,1.1334 -53.37872,-9.6666 -75.54181,-26.793 -22.14764,-17.1145 -37.01196,-39.8699 -48.36023,-65.108 -10.17294,-22.6239 -16.35883,-46.4234 -20.35558,-70.8145 -1.71757,-10.4819 -5.87812,-19.7307 -12.6123,-27.8375 -4.80069,-5.7789 -10.7303,-10.8976 -18.14818,-11.5309 -7.06146,-0.6028 -8.58879,-4.7285 -10.46794,-9.8832 -12.88344,-35.3404 -24.94873,-71.0174 -39.08032,-105.8547 -16.51309,-40.7081 -34.85217,-80.6759 -52.41431,-120.9582 -15.69733,-36.0049 -31.463941,-71.9795 -47.104917,-108.0087 -8.392784,-19.3331 -10.247368,-39.8436 -10.225762,-60.6032 0.01095,-10.5217 0.491722,-21.0429 0.778183,-32.2738 3.722008,0.558 5.957299,0.9748 8.211357,1.2173 12.540871,1.3491 18.23674,-3.7599 17.47197,-16.5393 -0.435326,-7.2744 -1.821808,-14.5205 -3.165482,-21.7074 C 74.913967,1108.2699 57.360542,1056.7202 33.558143,1007.2784 25.327598,990.18202 16.686735,973.28092 8.043094,956.38782 6.264469,952.91172 3.638838,949.86882 0.702018,946.58872 0,943.77422 0,940.99652 0,937.38532 c 1.294832,-3.8145 3.272808,-6.6846 3.778632,-9.7941 4.963259,-30.51203 9.75443,-61.05274 14.452619,-91.60712 7.583477,-49.31897 15.262062,-98.59925 31.187713,-146.14905 13.818592,-41.25873 34.104275,-78.81903 64.355766,-110.31897 18.41095,-19.17072 37.8548,-37.36499 57.13976,-55.67657 21.45337,-20.37049 43.3559,-40.24488 62.54173,-62.89777 9.21189,-10.87653 15.81792,-22.96552 20.39862,-36.31976 3.23912,-9.44306 6.36028,-18.92981 9.79454,-28.30161 3.25104,-8.8718 8.48886,-16.48697 15.20407,-23.18271 29.95829,-29.87143 59.31913,-60.36435 89.89472,-89.58761 26.90472,-25.71476 55.05325,-50.13407 82.81464,-74.9441 13.86813,-12.3937 30.47985,-14.98541 48.50366,-13.29165 17.17608,1.61413 34.45007,2.19137 51.68261,3.19656 7.69831,0.44904 11.2591,-3.22079 14.2613,-10.57492 14.71295,-36.0408 40.03442,-61.56801 77.49493,-73.91794 14.49744,-4.77948 29.49463,-5.38135 44.38123,-2.19963 8.16345,1.74478 15.42736,0.40235 21.74572,-4.38627 10.58124,-8.01941 20.94379,-16.368723 30.94763,-25.095913 8.51539,-7.42866 16.12848,-15.89408 24.67194,-23.287 4.15009,-3.59119 9.21619,-6.73624 14.40656,-8.35708 6.42138,-2.00528 10.50836,1.32252 10.46325,8.14331 -0.0657,9.94297 -1.09479,19.87956 -1.58038,31.18612 1.28174,1.11984 2.43066,0.87242 3.57959,0.625 14.75537,-9.01729 28.9892,-19.07342 44.38965,-26.80607 22.57184,-11.33342 45.72461,-21.62375 69.10199,-31.20685 23.08392,-9.46279 47.0758,-16.73679 70.0321,-26.4736 11.40174,-4.8359902 20.68726,-2.3965202 30.08141,2.90554 6.3302,3.57276 11.9797,8.36255 17.8751,12.68774 1.6031,1.17616 2.9504,2.6946 4.4892,3.96615 16.5573,13.68051 20.1774,14.78775 41.5238,12.43153 1.1105,17.1021 3.6941,34.11521 -1.0227,51.09946 -3.5045,12.619923 -11.4602,20.953733 -24.2613,23.925933 -6.7527,1.56787 -13.7482,2.82914 -20.6446,2.88277 -13.6209,0.10591 -27.24782,-1.06577 -40.87428,-1.11133 -77.87744,-0.26037 -152.74237,14.21143 -224.28589,45.51721 -37.29407,16.319 -72.90118,35.75138 -107.9549,56.28571 -37.63262,22.04504 -75.04052,44.47571 -112.76648,66.35886 -20.591,11.94393 -39.04153,26.42813 -56.27133,42.79232 -24.11981,22.90802 -49.04638,44.96732 -73.1351,67.90708 -18.31427,17.44067 -36.24688,35.32031 -53.67718,53.64392 -53.2396,55.96832 -97.56345,117.95972 -126.07325,190.32129 -16.91888,42.94232 -28.22084,87.2995 -33.07246,133.29376 -5.78844,54.87567 -11.96954,109.70996 -17.98921,164.56116 -1.95812,17.8423 -4.1924,35.6589 -5.84136,53.5295 -1.44862,15.69958 -8.41716,29.23568 -15.21154,42.99588 -4.10431,8.3124 -7.62476,16.9696 -10.69535,25.7218 -4.39175,12.518 -0.66732,25.0895 1.06055,37.5238 5.44637,39.194 11.20786,78.3444 16.80296,117.5179 0.32048,2.2439 0.24488,4.5444 0.40987,7.9957 -3.38612,-1.6902 -5.817,-3.077 -8.37962,-4.1488 -6.67911,-2.7932 -11.77144,-1.3369 -15.1186,5.0065 -1.6423,3.1125 -2.83953,6.9494 -2.72317,10.4077 0.33775,10.0381 4.8529,18.6062 11.62402,25.7861 3.74857,3.9749 8.82108,3.8569 13.64173,0.3859 2.36473,-1.7028 4.36862,-3.9066 7.53791,-6.7978 2.72127,5.1196 5.51973,9.5011 7.48685,14.2287 12.40518,29.8142 24.7211,59.6664 36.88156,89.5813 12.80895,31.51 30.43784,59.7562 54.3192,84.2092 23.24872,23.8052 45.15442,48.9446 68.80982,72.3245 31.94735,31.5755 64.93853,62.0981 97.60385,92.9433 26.61038,25.1277 53.50482,49.9551 80.07522,75.1247 19.57593,18.5439 38.9375,37.3182 58.15583,56.2324 4.73791,4.663 9.35479,7.1053 15.99969,4.6769 3.08868,-1.1288 6.49341,-1.4004 9.76038,-2.0324 20.00476,-3.87 20.97174,-4.3595 33.4541,-17.0445 6.31518,12.9664 1.22198,22.9683 -19.13092,36.6651 2.11383,1.7172 3.90204,3.5221 6.00214,4.8238 42.03503,26.0534 86.95324,44.8802 136.02343,52.4814 17.37824,2.692 35.05457,3.5021 52.60895,5.0063 45.43317,3.893 90.58484,9.9408 135.30713,18.7765 27.40558,5.4143 54.54605,12.1604 81.87315,17.9922 4.0453,0.8633 8.6807,0.8128 12.6756,-0.2269 34.5504,-8.9923 69.5561,-15.1255 105.2179,-17.0612 14.267,-0.7741 26.5227,-4.4072 35.2528,-16.9674 3.0974,-4.4561 8.2421,-7.8143 13.0529,-10.6576 4.3356,-2.5622 5.8669,-5.7946 6.21,-10.4532 0.4602,-6.2465 1.3746,-12.4592 2.2272,-19.84 3.5883,2.6298 6.3175,4.6299 10.1384,7.4301 4.0505,-11.3454 -1.7661,-20.526 -4.3588,-31.3875 8.1912,4.7783 12.9777,10.9048 17.5247,17.2329 4.4338,6.1704 8.7148,12.4506 13.5924,19.4414 3.0973,-4.3266 5.5175,-8.2064 8.4292,-11.6734 6.5605,-7.8114 9.1842,-7.8455 17.0718,-0.3764 1.7348,-8.8083 3.4063,-17.2949 5.1678,-26.2384 8.758,2.1857 8.0531,11.4538 15.1547,15.3056 1.7032,-3.3843 3.3826,-6.3794 4.7551,-9.5092 5.3657,-12.235 9.2822,-14.3337 22.2843,-12.6369 6.2139,0.8108 12.5263,0.8685 19.4389,1.3083 0,3.2992 -0.1137,6.5248 0.02,9.7399 0.4862,11.6734 7.5792,15.6244 17.2758,9.0088 6.558,-4.4744 12.2466,-10.2163 18.3755,-15.33 1.9749,-1.6478 4.1137,-3.0994 7.068,-5.3054 2.2696,3.6444 4.0241,6.7327 6.0352,9.6435 8.0037,11.585 18.2544,15.0624 31.3052,9.4967 8.2045,-3.4987 16.0744,-8.0139 23.593,-12.8522 62.4683,-40.199 123.7173,-82.2078 183.2381,-126.6413 58.1599,-43.4172 115.6253,-87.7648 173.4113,-131.6832 2.8538,-2.169 5.8589,-4.1388 9.6003,-6.7682 0,7.4043 0,13.8724 -0.273,21.7073 -0.4059,3.0465 -0.5388,4.7262 -0.6719,6.4057 0.5273,0.083 1.0545,0.1667 1.5816,0.25 0.5836,-2.0819 1.1671,-4.1637 1.7506,-6.2454 M 152.45845,1341.97 c 0,0 -0.0735,0.5667 -0.0735,0.5667 0,0 0.29039,-0.7495 -0.20523,-2.1659 -2.86708,-9.5036 -5.68103,-19.024 -8.63286,-28.5012 -0.91332,-2.9323 -2.32938,-5.7218 -6.15083,-5.28 -5.77933,0.668 -9.4029,8.2292 -5.86608,12.7808 5.68285,7.3131 11.72618,14.3503 17.77036,21.3723 0.63556,0.7383 2.29876,0.592 3.15817,1.2273 m 51.48378,36.4099 c 0,0 0.15193,0.3797 0.15193,0.3797 0,0 -0.79483,-0.1986 -0.82625,-1.5759 -6.22985,-13.177 -12.4759,-26.3464 -18.68348,-39.5338 -3.67232,-7.8016 -6.99572,-15.7847 -11.02898,-23.3929 -2.49701,-4.7102 -5.72223,-9.2585 -13.90366,-11.2159 2.52105,4.8057 4.07891,7.5758 5.45464,10.4335 4.86531,10.106 10.75951,19.6621 11.29015,31.5419 0.80871,18.1048 8.92257,27.5565 27.54565,33.3634 z"
   id="path2" />&#10;<path
   fill="#f25f3a"
   opacity="1"
   stroke="none"
   d="m 1930.2437,866.15616 c -1.9353,-2.92133 -3.2151,-6.84253 -5.9081,-8.6084 -25.1256,-16.47461 -42.2576,-40.13794 -57.8148,-64.90436 -9.6796,-15.40912 -17.2255,-32.14777 -26.0396,-48.11835 -2.3638,-4.2829 -1.9668,-7.888 -0.468,-12.23883 5.3341,-15.48407 8.1399,-31.4339 7.4073,-49.24554 -0.2971,-1.99317 -0.6447,-2.50806 -1.1682,-2.90424 -1.1731,-26.9787 -13.61,-47.83288 -36.1146,-61.92645 -22.0853,-13.83093 -37.2467,-32.22663 -45.8043,-56.90552 -7.6117,-21.9508 -17.3297,-43.2016 -21.043,-66.35583 -1.1006,-6.86225 -1.4531,-13.84443 -2.4449,-21.99158 -0.2831,-1.72376 -0.4223,-2.18109 -0.7143,-2.59198 0.5679,-6.79895 1.1359,-13.5979 1.8931,-22.66455 -7.9812,3.8764 -13.8136,6.77563 -19.7045,9.55096 -5.4037,2.54572 -10.8038,5.1192 -16.3225,7.39698 -14.0903,5.81573 -26.7408,4.07763 -39.337,-5.28052 -25.6553,-19.06018 -51.9435,-37.27338 -78.0802,-55.68 -51.4567,-36.23791 -102.3644,-73.3038 -154.6936,-108.23806 -39.0104,-26.04288 -79.8555,-49.34476 -120.0279,-73.62833 -3.4928,-2.11136 -8.0402,-3.33426 -12.1405,-3.44922 -32.9825,-0.92471 -64.8584,-6.84491 -94.8977,-20.81647 -19.8468,-9.23092 -37.63,-21.53851 -51.1495,-39.03973 -16.7217,-21.6465 -11.3212,-50.91753 11.9941,-63.545673 6.2256,-3.37193 13.778,-4.77948 20.9076,-5.86119 7.1923,-1.09122 14.6148,-0.77595 21.939,-0.8641 11.9706,-0.14403 24.0364,-0.86814 35.4409,5.24691 2.5291,-3.81857 4.5934,-7.13334 6.8526,-10.30975 6.8042,-9.56686 15.5742,-14.7072 27.8715,-14.45493 17.9761,0.36876 36.0324,0.51027 53.9485,-0.75254 25.0617,-1.76644 49.835,0.0402 74.4793,3.86248 32.0665,4.97345 62.7102,15.35492 92.952,26.729223 58.3965,21.96355 112.4058,51.78299 160.9272,91.26259 24.872,20.23691 48.0408,42.24048 67.8356,67.45496 9.0062,11.47198 16.2367,24.36355 24,36.78173 59.1486,94.6146 118.1701,189.30875 177.4623,283.83317 4.0509,6.458 6.3171,13.11883 7.2181,20.40167 5.4291,43.88391 11.2047,87.73187 15.9451,131.6911 2.6003,24.11273 3.3984,48.41986 5.132,74.03558 0.299,2.02924 0.6507,2.54193 1.1779,2.93421 0,16.38067 0,32.76135 0,49.83618 8.6339,-0.71656 12.5769,-5.35102 15.722,-10.91303 5.2702,-9.32068 11.1319,-18.03448 21.9069,-23.04559 0.6165,1.84625 0.6165,3.97955 0.6165,6.91296 -6.0074,20.09754 -13.0038,39.15216 -17.8162,58.74335 -9.9327,40.43597 -15.505,81.63127 -18.5993,123.15785 -0.5772,7.745 -1.606,15.4564 -3.2016,23.2094 -4.6076,-9.7979 -5.3051,-20.2642 -6.0044,-30.6643 -2.2457,-33.40798 2.6974,-66.35608 6.6441,-99.36308 0.5077,-4.24579 0.8732,-8.50869 -0.2912,-13.9653 -2.2407,2.03919 -4.3963,4.1825 -6.738,6.09827 -7.8589,6.42963 -14.654,4.91863 -19.5841,-4.01355 -3.9673,-7.18774 -2.2637,-14.98169 -2.9855,-23.90247 -0.3004,-1.99865 -0.6527,-2.50793 -1.1801,-2.89611 z"
   id="path3" />&#10;<path
   fill="#f25f3a"
   opacity="1"
   stroke="none"
   d="m 1182.2159,1314.9266 c -3.9108,2.9007 -7.4253,7.2206 -11.8046,8.4441 -15.0033,4.1912 -30.1539,8.3777 -45.5324,10.5984 -36.1772,5.224 -72.5507,8.791 -109.1868,8.979 -17.94253,0.092 -35.88204,0.7602 -55.12118,0.778 -1.83752,-0.7035 -2.41888,-0.8733 -3.04242,-0.8987 -17.68042,0.35 -35.3294,-0.1823 -52.54699,-4.5531 -5.69526,-1.4458 -11.35852,-3.9282 -16.34186,-7.0466 -6.87341,-4.3009 -10.38648,-11.0586 -10.30017,-19.403 0.0276,-2.6658 -0.0123,-5.3321 -0.0123,-7.9982 -8.5e-4,-226.9505 0.13531,-453.90124 -0.26752,-680.85101 -0.0311,-17.52667 6.91522,-28.17261 22.04389,-35.32233 16.78821,-7.93402 34.63855,-12.15441 52.76642,-14.40332 30.00439,-3.72216 60.12083,-7.58746 90.28953,-8.70343 50.8954,-1.88256 101.8671,-1.90484 152.8097,-2.24151 33.9794,-0.22455 68.005,-0.59577 101.9355,0.84912 35.8265,1.52563 71.8621,2.68347 106.9526,11.33002 27.855,6.86364 54.8214,16.57348 80.9568,28.34356 23.2444,10.46796 38.9726,29.44843 53.9438,49.29828 24.8448,32.94074 36.9173,70.28321 40.6923,110.97223 2.2844,24.62293 2.6902,49.23755 1.0652,73.80969 -3.2919,49.7804 -14.5736,97.36452 -41.8273,140.05972 -15.7384,24.65588 -34.7281,46.22608 -59.6477,62.08888 -0.7638,0.4861 -1.2649,1.3848 -2.209,2.4543 4.6261,7.2823 9.2495,14.4696 13.7838,21.7128 28.802,46.0101 56.7917,92.5083 80.9518,141.1565 11.5415,23.2395 22.5386,46.8226 27.8948,72.5082 4.1705,19.9994 -0.9863,31.7043 -18.7882,41.5117 -15.6643,8.6299 -32.85,12.8191 -50.2663,15.8234 -34.4862,5.9489 -69.2736,8.5693 -104.2772,8.728 -18.959,0.086 -37.9549,1.7944 -56.862,1.0161 -22.5335,-0.9277 -45.3234,-0.1394 -67.4754,-5.5084 -6.3539,-1.5399 -12.6136,-4.1685 -18.3714,-7.3001 -8.0243,-4.3641 -11.977,-12.0208 -14.6455,-20.6194 -9.7652,-31.4638 -19.8084,-62.8414 -29.6996,-94.2663 -12.391,-39.3659 -24.821,-78.7197 -36.9997,-118.1513 -1.6599,-5.3745 -4.4213,-7.8111 -9.9561,-7.3969 -2.5967,0.1942 -5.2199,0.033 -9.2835,0.033 -0.4155,73.5566 0.046,146.7436 -0.6261,221.2118 -0.7048,1.7961 -0.9131,2.3528 -0.9949,2.9566 m 1.4546,-549.36639 c 0.1906,51.30115 0.3808,102.60229 0.5857,153.90341 0,0.3138 0.1598,0.6627 0.341,0.9301 0.1792,0.2648 0.4802,0.4471 1.9964,1.7851 8.2947,0 17.921,0.5504 27.4637,-0.109 23.3918,-1.6164 39.8226,-13.2631 49.0068,-35.10873 6.4269,-15.28742 8.3288,-31.32984 9.8102,-47.65082 1.9513,-21.50031 0.2099,-42.63043 -5.6786,-63.20734 -5.6248,-19.65448 -17.8034,-34.78399 -38.0382,-40.31152 -14.3896,-3.93079 -29.5551,-1.59699 -45.487,-1.01282 0,10.26984 0,19.52759 0,30.78162 z"
   id="path4" />&#10;<path
   fill="#f25f3a"
   opacity="1"
   stroke="none"
   d="m 792.17279,1266.5813 c -0.18878,6.7064 -0.37756,13.4128 -0.85974,21.477 -0.46637,2.0026 -0.63934,2.6474 -0.81232,3.2923 -0.63153,29.7146 -3.77301,59.103 -12.35205,87.6683 -5.76709,19.2022 -13.6449,37.4899 -25.05755,54.1452 -14.27832,20.837 -33.87177,34.5788 -57.37091,42.911 -19.83686,7.0335 -40.30164,11.8932 -61.36603,12.6518 -27.93286,1.0061 -55.91193,1.7278 -83.85059,1.282 -26.30096,-0.4199 -52.24976,-4.2262 -77.79452,-11.1837 -37.56943,-10.2328 -60.3418,-34.3607 -67.80732,-72.007 -5.80755,-29.2854 -5.5552,-59.0014 1.63407,-88.1687 2.02728,-8.2251 6.07168,-16.2186 10.5068,-23.5189 5.90457,-9.719 15.53318,-14.1825 26.86099,-14.9005 3.63819,-0.2306 7.26575,-0.6259 10.90351,-0.8651 16.42767,-1.0809 24.78934,-11.1865 29.00931,-25.9078 3.32592,-11.6023 4.5661,-23.4416 4.56201,-35.5132 -0.0628,-185.6107 -0.0461,-371.2215 -0.0476,-556.83222 0,-3.33233 0.13867,-6.67114 -0.0207,-9.99578 -0.64777,-13.51691 5.13061,-23.61774 15.9313,-31.41407 16.94788,-12.23364 35.95411,-20.18933 55.51984,-26.88318 30.04016,-10.27722 60.87354,-16.62414 92.64038,-18.76135 27.9748,-1.88196 55.87158,-2.46515 83.53363,2.58441 9.74091,1.7782 19.53266,4.50849 28.6156,8.40296 18.4571,7.91363 28.02863,21.50647 27.98706,42.77801 -0.35449,181.27796 -0.20392,362.55704 -0.19903,543.83562 7.9e-4,30.3235 0.0279,60.6469 -0.0506,92.4125 -0.10083,1.7981 -0.10815,2.1542 -0.11554,2.5104 z"
   id="path5" />&#10;<path
   fill="#f25f3a"
   opacity="1"
   stroke="none"
   d="m 1801.458,1612.0822 c 0.026,1.9976 -0.557,4.0794 -1.1406,6.1613 -0.5271,-0.083 -1.0543,-0.1667 -1.5816,-0.25 0.1331,-1.6795 0.266,-3.3592 0.646,-5.5194 0.6535,-0.4231 1.0599,-0.3654 2.0762,-0.3919 z"
   id="path6" />&#10;<path
   fill="#f25f3a"
   opacity="1"
   stroke="none"
   d="m 1644.9042,1913.0153 c 0.5405,0.4312 0.7209,1.2274 0.9013,2.0235 -0.5492,-0.07 -1.0985,-0.1393 -1.814,-0.5682 0.073,-0.6029 0.3129,-0.8466 0.9127,-1.4553 z"
   id="path7" />&#10;<path
   fill="#f25f3a"
   opacity="1"
   stroke="none"
   d="m 791.52161,189.92064 c -0.54969,0.3123 -1.69861,0.55972 -2.92493,0.27437 0.72363,-0.46826 1.5246,-0.40376 2.92493,-0.27437 z"
   id="path8" />&#10;<path
   fill="#f25f3a"
   opacity="1"
   stroke="none"
   d="m 1205.0393,1855.1322 c -0.1145,0.069 0.1145,-0.069 0,0 z"
   id="path9" />&#10;<path
   fill="#f25f3a"
   opacity="1"
   stroke="none"
   d="m 812.40259,2113.3588 c -10e-4,-0.4353 0.55957,-0.7459 1.65271,-1.042 -0.0649,0.2969 -0.60596,0.6811 -1.65271,1.042 z"
   id="path10" />&#10;<path
   fill="#f25f3a"
   opacity="1"
   stroke="none"
   d="m 1251.8361,2148.599 c 0.3027,-0.3188 0.8983,-0.1333 1.835,0.4636 0.3859,0.2686 -0.6015,0.3164 -0.6015,0.3164 0,0 -0.896,-0.4179 -1.2335,-0.78 z"
   id="path11" />&#10;<path
   fill="#f25f3a"
   opacity="1"
   stroke="none"
   d="m 957.86438,1442.5026 c 0.28766,-0.3108 0.86902,-0.141 1.77679,0.4416 0.36847,0.2687 -0.57983,0.2926 -0.57983,0.2926 0,0 -0.86102,-0.3982 -1.19696,-0.7342 z"
   id="path12" />&#10;<path
   fill="#f25f3a"
   opacity="1"
   stroke="none"
   d="m 1182.5873,1413.9677 c -0.2896,-0.3059 -0.081,-0.8626 0.5262,-1.7261 0.4575,0.3182 0.315,0.9123 -0.5262,1.7261 z"
   id="path13" />&#10;<path
   fill="#f25f3a"
   opacity="1"
   stroke="none"
   d="m 790.86652,1390.3034 c -0.19281,-0.2587 -0.0198,-0.9035 0.38537,-1.9935 0.14832,0.2392 0.0643,0.9233 -0.38537,1.9935 z"
   id="path14" />&#10;<path
   fill="#f25f3a"
   opacity="1"
   stroke="none"
   d="m 792.35828,1365.7003 c -0.1781,-0.1362 -0.17078,-0.4923 -0.007,-1.3589 0.43976,0.033 0.45178,0.5824 0.007,1.3589 z"
   id="path15" />&#10;<path
   fill="#f25f3a"
   opacity="1"
   stroke="none"
   d="m 1930.3125,965.94704 c 0.4586,-0.0637 0.8109,0.44556 0.9846,1.54627 -0.4336,0.0223 -0.7377,-0.49933 -0.9846,-1.54627 z"
   id="path16" />&#10;<path
   fill="#f25f3a"
   opacity="1"
   stroke="none"
   d="m 1961.6865,905.84658 c -0.4591,0.0617 -0.8108,-0.45099 -0.9829,-1.55603 0.4343,-0.0206 0.7379,0.50402 0.9829,1.55603 z"
   id="path17" />&#10;<path
   fill="#f25f3a"
   opacity="1"
   stroke="none"
   d="m 1846.3173,779.93026 c 0.4585,-0.0587 0.8061,0.45623 0.9742,1.56134 -0.4342,0.0194 -0.7361,-0.50666 -0.9742,-1.56134 z"
   id="path18" />&#10;<path
   fill="#f25f3a"
   opacity="1"
   stroke="none"
   d="m 1740.0569,570.06362 c 0.3663,0.0513 0.5055,0.50866 0.4328,1.36914 -0.3761,-0.0438 -0.5253,-0.49927 -0.4328,-1.36914 z"
   id="path19" />&#10;<path
   fill="#f25f3a"
   opacity="1"
   stroke="none"
   d="m 203.51924,1477.9081 c -18.20009,-5.9961 -26.31395,-15.4478 -27.12266,-33.5526 -0.53064,-11.8798 -6.42484,-21.4359 -11.29015,-31.5419 -1.37573,-2.8577 -2.93359,-5.6278 -5.45464,-10.4335 8.18143,1.9574 11.40665,6.5057 13.90366,11.2159 4.03326,7.6082 7.35666,15.5913 11.02898,23.3929 6.20758,13.1874 12.45363,26.3568 18.75474,40.2087 0.0713,0.6748 0.18007,0.7105 0.18007,0.7105 z"
   id="path20"
   style="opacity:0" />&#10;<path
   fill="#f25f3a"
   opacity="1"
   stroke="none"
   d="m 152.78545,1440.938 c -1.18641,-0.2643 -2.84961,-0.118 -3.48517,-0.8563 -6.04418,-7.022 -12.08751,-14.0592 -17.77036,-21.3723 -3.53682,-4.5516 0.0867,-12.1128 5.86608,-12.7808 3.82145,-0.4418 5.23751,2.3477 6.15083,5.28 2.95183,9.4772 5.76578,18.9976 8.881,29.1465 0.24815,0.6452 0.35762,0.5829 0.35762,0.5829 z"
   id="path21"
   style="opacity:0" />&#10;<path
   fill="#f25f3a"
   opacity="1"
   stroke="none"
   d="m 152.67564,1441.0632 c -3.3e-4,0.063 -0.29072,0.8125 -0.29072,0.8125 0,0 0.0735,-0.5667 0.23703,-0.7523 0.1635,-0.1854 0.054,-0.1231 0.0537,-0.06 z"
   id="path22"
   style="opacity:0" />&#10;<path
   fill="#f25f3a"
   opacity="1"
   stroke="none"
   d="m 203.35489,1477.8862 c -0.0556,0.014 0.73927,0.2124 0.73927,0.2124 0,0 -0.15193,-0.3797 -0.36342,-0.2851 -0.2115,0.095 -0.32029,0.059 -0.37585,0.073 z"
   id="path23"
   style="opacity:0" />&#10;<path
   fill="#f25f3a"
   opacity="1"
   stroke="none"
   d="m 1183.6705,863.90108 c 0,-10.25592 0,-19.51367 0,-29.78351 15.9319,-0.58417 31.0974,-2.91797 45.487,1.01282 20.2348,5.52753 32.4134,20.65704 38.0382,40.31152 5.8885,20.57691 7.6299,41.70703 5.6786,63.20734 -1.4814,16.32098 -3.3833,32.3634 -9.8102,47.65082 -9.1842,21.84563 -25.615,33.49233 -49.0068,35.10873 -9.5427,0.6594 -19.169,0.109 -27.4637,0.109 -1.5162,-1.338 -1.8172,-1.5203 -1.9964,-1.7851 -0.1812,-0.2674 -0.3396,-0.6163 -0.341,-0.9301 -0.2049,-51.30112 -0.3951,-102.60226 -0.5857,-154.90152 z"
   id="path24"
   style="opacity:0" />&#10;<metadata
   id="metadata24"><rdf:RDF><cc:Work
       rdf:about="" /></rdf:RDF></metadata></svg>
